<svg xmlns="http://www.w3.org/2000/svg" width="22" height="22" viewBox="0 0 22 22" fill="none">
<path d="M11.0048 0.991212C8.94624 0.990517 6.9337 1.6001 5.22173 2.74286C3.50976 3.88561 2.17525 5.51022 1.38699 7.4112C0.598729 9.31218 0.392124 11.4041 0.793305 13.4225C1.19448 15.4409 2.18543 17.295 3.64081 18.7503C5.09619 20.2057 6.95063 21.1969 8.96959 21.5986C10.9885 22.0003 13.0813 21.7945 14.9833 21.0071C16.8852 20.2198 18.5108 18.8863 19.6546 17.1754C20.7983 15.4644 21.4088 13.4528 21.4088 11.395C21.4088 8.63634 20.3128 5.99063 18.3618 4.03965C16.4107 2.08866 13.7644 0.992143 11.0048 0.991212V0.991212ZM5.11083 6.18081C5.22211 5.60401 5.50198 5.07314 5.91504 4.65532C6.32811 4.23749 6.85583 3.95148 7.43148 3.83343C8.00714 3.71539 8.60488 3.77061 9.14915 3.99211C9.69341 4.21362 10.1598 4.59147 10.4892 5.07789C10.8187 5.5643 10.9965 6.13745 11.0002 6.72487C11.0038 7.31229 10.8331 7.8876 10.5097 8.37808C10.1864 8.86855 9.72474 9.25217 9.18328 9.48042C8.64181 9.70867 8.0448 9.77132 7.46772 9.66043C7.08435 9.58677 6.71925 9.43832 6.3933 9.22355C6.06734 9.00879 5.78692 8.73193 5.56804 8.40879C5.34916 8.08564 5.19613 7.72256 5.11768 7.34027C5.03923 6.95798 5.0369 6.56399 5.11083 6.18081V6.18081ZM9.43472 15.1695C9.32265 15.7461 9.04209 16.2766 8.62851 16.6938C8.21493 17.111 7.68689 17.3963 7.11114 17.5136C6.53539 17.6309 5.93777 17.575 5.39383 17.3528C4.84989 17.1307 4.38404 16.7523 4.05517 16.2656C3.72629 15.7788 3.54916 15.2055 3.54616 14.6182C3.54315 14.0308 3.71441 13.4557 4.03829 12.9656C4.36217 12.4756 4.82413 12.0924 5.36577 11.8648C5.90741 11.6371 6.50442 11.575 7.08134 11.6864C7.46475 11.7605 7.8298 11.9093 8.15563 12.1245C8.48145 12.3396 8.76165 12.6169 8.98022 12.9404C9.19878 13.2639 9.35142 13.6273 9.42941 14.0098C9.50739 14.3922 9.5092 14.7864 9.43472 15.1695V15.1695ZM10.6957 12.7644C10.4396 12.7148 10.2039 12.5906 10.0183 12.4073C9.83274 12.224 9.70563 11.9899 9.653 11.7345C9.60037 11.4791 9.62459 11.2138 9.7226 10.9722C9.82061 10.7305 9.98801 10.5233 10.2037 10.3766C10.4194 10.2299 10.6737 10.1504 10.9346 10.148C11.1954 10.1456 11.4511 10.2205 11.6694 10.3633C11.8878 10.506 12.0589 10.7102 12.1613 10.95C12.2637 11.1899 12.2927 11.4547 12.2447 11.711C12.2127 11.8821 12.1471 12.0451 12.0518 12.1908C11.9565 12.3365 11.8334 12.4619 11.6894 12.5598C11.5454 12.6577 11.3835 12.7261 11.213 12.7612C11.0424 12.7964 10.8667 12.7974 10.6957 12.7644V12.7644ZM16.8953 16.6021C16.784 17.1789 16.5041 17.7098 16.0911 18.1276C15.678 18.5454 15.1503 18.8315 14.5746 18.9495C13.999 19.0676 13.4012 19.0123 12.8569 18.7908C12.3127 18.5693 11.8463 18.1915 11.5169 17.7051C11.1874 17.2186 11.0096 16.6455 11.0059 16.0581C11.0023 15.4706 11.1729 14.8953 11.4963 14.4049C11.8197 13.9144 12.2814 13.5308 12.8228 13.3025C13.3643 13.0743 13.9613 13.0116 14.5384 13.1225C14.9217 13.1962 15.2868 13.3446 15.6128 13.5594C15.9388 13.7741 16.2192 14.051 16.4381 14.3742C16.6569 14.6973 16.81 15.0604 16.8884 15.4427C16.9669 15.825 16.9692 16.2189 16.8953 16.6021V16.6021ZM14.9283 11.0965C14.3513 10.9853 13.8202 10.7055 13.4022 10.2926C12.9842 9.87969 12.6981 9.35216 12.58 8.77671C12.462 8.20126 12.5172 7.60374 12.7388 7.05967C12.9604 6.5156 13.3383 6.04942 13.8249 5.72007C14.3115 5.39072 14.8849 5.21299 15.4725 5.20934C16.0602 5.20568 16.6357 5.37628 17.1263 5.69956C17.617 6.02284 18.0007 6.48428 18.2291 7.02555C18.4574 7.56683 18.5201 8.16362 18.4092 8.74049C18.3359 9.12404 18.1876 9.48938 17.973 9.81561C17.7583 10.1418 17.4814 10.4226 17.1581 10.6417C16.8348 10.8609 16.4714 11.0141 16.0888 11.0928C15.7062 11.1714 15.3118 11.1739 14.9283 11.1V11.0965Z" fill="#667085"/>
</svg>