<svg xmlns="http://www.w3.org/2000/svg" width="16" height="16" viewBox="0 0 16 16" fill="none">
<g clip-path="url(#clip0_752_3724)">
<path d="M10.0336 3.33268C10.6848 3.45973 11.2832 3.77819 11.7523 4.24731C12.2214 4.71642 12.5399 5.31486 12.6669 5.96601M10.0336 0.666016C11.3865 0.816306 12.648 1.42213 13.6111 2.38402C14.5742 3.34591 15.1816 4.60669 15.3336 5.95935M14.6669 11.2793V13.2793C14.6677 13.465 14.6297 13.6488 14.5553 13.8189C14.4809 13.989 14.3718 14.1417 14.235 14.2673C14.0982 14.3928 13.9367 14.4883 13.7608 14.5478C13.5849 14.6073 13.3985 14.6294 13.2136 14.6127C11.1622 14.3898 9.19161 13.6888 7.46028 12.566C5.8495 11.5425 4.48384 10.1768 3.46028 8.56601C2.3336 6.82682 1.63244 4.84668 1.41361 2.78602C1.39695 2.60166 1.41886 2.41586 1.47795 2.24043C1.53703 2.06501 1.63199 1.90381 1.75679 1.7671C1.88159 1.63038 2.03348 1.52116 2.20281 1.44636C2.37213 1.37157 2.55517 1.33286 2.74028 1.33268H4.74028C5.06382 1.3295 5.37748 1.44407 5.62279 1.65504C5.8681 1.86601 6.02833 2.15898 6.07361 2.47935C6.15803 3.11939 6.31458 3.74783 6.54028 4.35268C6.62998 4.5913 6.64939 4.85062 6.59622 5.09994C6.54305 5.34925 6.41952 5.57809 6.24028 5.75935L5.39361 6.60601C6.34265 8.27504 7.72458 9.65698 9.39361 10.606L10.2403 9.75935C10.4215 9.58011 10.6504 9.45658 10.8997 9.40341C11.149 9.35024 11.4083 9.36965 11.6469 9.45935C12.2518 9.68505 12.8802 9.8416 13.5203 9.92601C13.8441 9.9717 14.1399 10.1348 14.3513 10.3843C14.5627 10.6339 14.6751 10.9524 14.6669 11.2793Z" stroke="#292929" stroke-width="2" stroke-linecap="round" stroke-linejoin="round"/>
</g>
<defs>
<clipPath id="clip0_752_3724">
<rect width="16" height="16" fill="white"/>
</clipPath>
</defs>
</svg>