<svg xmlns="http://www.w3.org/2000/svg" width="36" height="36" viewBox="0 0 36 36" fill="none">
<circle cx="17.9999" cy="17.9999" r="17.0999" stroke="white" stroke-width="1.79999"/>
<path fill-rule="evenodd" clip-rule="evenodd" d="M8.85452 22.4965H8.75356C8.00398 22.4965 7.28509 22.1987 6.75505 21.6686C6.22502 21.1386 5.92725 20.4197 5.92725 19.6701V17.4741C5.92725 16.7245 6.22502 16.0056 6.75505 15.4756C7.28509 14.9455 8.00398 14.6478 8.75356 14.6478H9.74101V14.6235C9.74101 9.86084 13.6019 6 18.3645 6C23.1271 6 26.988 9.86084 26.988 14.6235V14.6478H27.9754C28.725 14.6478 29.4439 14.9455 29.9739 15.4756C30.504 16.0056 30.8017 16.7245 30.8017 17.4741V19.6701C30.8017 20.4197 30.504 21.1386 29.9739 21.6686C29.4439 22.1987 28.725 22.4965 27.9754 22.4965H26.6063C26.4756 22.4965 26.3502 22.4445 26.2578 22.3521C26.1654 22.2597 26.1135 22.1344 26.1135 22.0037V14.6235C26.1135 10.3439 22.6442 6.87449 18.3645 6.87449C14.0849 6.87449 10.6155 10.3439 10.6155 14.6235V22.0037C10.6155 22.0684 10.6028 22.1325 10.578 22.1923C10.5533 22.252 10.517 22.3064 10.4712 22.3521C10.4255 22.3979 10.3711 22.4342 10.3113 22.4589C10.2516 22.4837 10.1875 22.4965 10.1228 22.4965H9.72906C9.75146 25.2627 12.0006 27.498 14.7718 27.498H15.6178C15.7177 27.037 15.9724 26.6241 16.3395 26.328C16.7066 26.0319 17.1641 25.8704 17.6357 25.8704H19.0932C20.2336 25.8704 21.158 26.7949 21.158 27.9352C21.158 29.0756 20.2336 30 19.0932 30H17.6357C16.6455 30 15.818 29.3029 15.6174 28.3725H14.7718C11.5174 28.3725 8.87662 25.7453 8.85452 22.4965ZM20.2835 27.9352C20.2835 27.2778 19.7506 26.7449 19.0932 26.7449H17.6357C17.4794 26.7449 17.3247 26.7757 17.1802 26.8355C17.0358 26.8953 16.9046 26.983 16.7941 27.0936C16.6835 27.2041 16.5959 27.3353 16.5361 27.4797C16.4762 27.6241 16.4455 27.7789 16.4455 27.9352C16.4455 28.5926 16.9784 29.1255 17.6357 29.1255H19.0932C19.7506 29.1255 20.2835 28.5926 20.2835 27.9352ZM9.74101 15.5223H8.75356C8.23591 15.5223 7.73946 15.7279 7.37343 16.094C7.00739 16.46 6.80175 16.9564 6.80174 17.4741V19.6701C6.80175 20.1878 7.00739 20.6842 7.37343 21.0503C7.73946 21.4163 8.23591 21.6219 8.75356 21.622H9.74101V15.5223ZM26.988 15.5223V21.622H27.9754C28.4931 21.6219 28.9895 21.4163 29.3556 21.0503C29.7216 20.6842 29.9272 20.1878 29.9272 19.6701V17.4741C29.9273 17.2178 29.8768 16.964 29.7787 16.7271C29.6806 16.4903 29.5369 16.2751 29.3556 16.0939C29.1744 15.9127 28.9592 15.7689 28.7224 15.6708C28.4856 15.5727 28.2317 15.5222 27.9754 15.5223H26.988Z" fill="white"/>
</svg>