<svg xmlns="http://www.w3.org/2000/svg" width="69" height="70" viewBox="0 0 69 70" fill="none">
<g filter="url(#filter0_d_469_4365)">
<rect y="0.5" width="64" height="64" rx="7.42029" fill="white" shape-rendering="crispEdges"/>
<path d="M45.1672 28.1374C44.8002 27.7704 44.2956 27.5869 43.791 27.5411C43.8369 27.4034 43.8369 27.2658 43.8369 27.0823C43.8369 26.486 43.6075 25.9355 43.1947 25.5227C42.8277 25.1557 42.369 24.9722 41.8644 24.9263C42.0479 24.1924 41.8185 23.4126 41.2681 22.8621C40.9928 22.5869 40.6717 22.4034 40.3506 22.3116L42.8736 19.7887C43.7452 18.9171 43.7452 17.4951 42.8736 16.6235C42.0479 15.7978 40.5341 15.7978 39.7084 16.6235L30.9468 25.3392C30.5798 24.6511 30.0294 23.5961 29.2496 22.6786C28.7908 22.0823 28.1945 21.5318 27.4605 21.0272C26.4514 20.2933 25.0752 20.2933 24.0201 21.0272C23.2403 21.5777 23.0109 22.6786 23.5614 23.5043L24.8917 25.5227C25.5798 26.6236 25.9468 27.8622 25.9009 29.1925L25.8091 33.0457C25.8091 33.4586 25.6257 33.8256 25.3504 34.1467L23.9284 35.5687L23.1027 34.743C22.8733 34.5136 22.5063 34.5136 22.2311 34.743L18.4237 38.5504C18.332 38.6421 18.2402 38.8256 18.2402 38.9632C18.2402 39.1008 18.2861 39.2843 18.4237 39.3761L26.8642 47.8166C26.9559 47.9083 27.1394 48 27.2771 48C27.4147 48 27.5982 47.9542 27.6899 47.8166L31.4973 44.0092C31.7267 43.7798 31.7267 43.4128 31.4973 43.1376L30.6716 42.3119L32.5524 40.4311L33.0111 40.5229C34.8001 40.9357 36.6808 40.4311 38.0111 39.1467C39.3873 37.7706 41.3139 35.7063 42.6901 33.5044C42.9195 33.4127 43.103 33.2751 43.2864 33.0916L45.0755 31.3026C46.0388 30.431 46.0388 29.009 45.1672 28.1374ZM41.5892 26.0273C41.8644 26.0273 42.1396 26.119 42.3231 26.3484C42.5066 26.5777 42.6442 26.8071 42.6442 27.0823C42.6442 27.3576 42.5525 27.6328 42.3231 27.8163L39.8919 30.2475C39.5249 30.6145 38.8368 30.6145 38.424 30.2475C38.2405 30.064 38.1029 29.7888 38.1029 29.5136C38.1029 29.2383 38.1946 28.9631 38.424 28.7796L40.8552 26.3484C41.0846 26.1649 41.3139 26.0273 41.5892 26.0273ZM40.3965 23.6419C40.8093 24.0548 40.8093 24.697 40.3965 25.1098L37.1854 28.3209C36.8185 28.6879 36.1304 28.6879 35.7175 28.3209C35.5799 28.1833 35.4882 27.9998 35.4423 27.7704C35.3964 27.4493 35.4882 27.0823 35.7175 26.853L38.9286 23.6419C39.3414 23.2291 39.9836 23.2291 40.3965 23.6419ZM27.3229 46.5321L19.754 38.9174L22.6898 35.9815L30.2587 43.5505L27.3229 46.5321ZM37.2313 38.2752C36.7349 38.77 36.1209 39.1307 35.4469 39.3232C34.7729 39.5158 34.061 39.534 33.3781 39.3761L32.5982 39.1926C32.4147 39.1467 32.1854 39.1926 32.0478 39.3761L29.9376 41.4862L24.8 36.3944L26.222 34.9724C26.7266 34.4678 27.0477 33.7797 27.0477 33.0457L27.1394 29.1925C27.1853 27.6328 26.7725 26.1649 25.9009 24.8346L24.5706 22.8162C24.3871 22.541 24.4788 22.174 24.7541 21.9447C25.3504 21.5318 26.1761 21.5318 26.7725 21.9447C27.4147 22.4034 27.9193 22.8621 28.3321 23.3667C29.4789 24.7887 30.2129 26.5319 30.2129 26.5777C30.3046 26.7612 30.4422 26.8989 30.6716 26.9447C30.8551 26.9906 31.0844 26.9447 31.2221 26.7612L40.6259 17.3574C40.9928 16.9905 41.6809 16.9905 42.0938 17.3574C42.5066 17.7703 42.5066 18.4125 42.0938 18.8253L34.8918 26.0273C34.3414 26.5777 34.1579 27.3117 34.2955 28.0457C34.9836 31.3485 32.5065 32.8622 32.3689 32.9081C32.0936 33.0916 32.0019 33.4586 32.1395 33.7338C32.2312 33.9173 32.4606 34.0549 32.6441 34.0549C32.7358 34.0549 32.8276 34.009 32.9652 33.9632C33.0111 33.9632 35.3506 32.5411 35.5799 29.6512C35.8552 29.7888 36.1763 29.8347 36.4515 29.8347C36.635 29.8347 36.7726 29.8347 36.9102 29.7888C36.9561 30.2934 37.1854 30.7521 37.5524 31.1191C37.9653 31.5319 38.5157 31.7613 39.1121 31.7613C39.2497 31.7613 39.3873 31.7613 39.5249 31.7154C39.5708 32.22 39.8002 32.6787 40.1671 33.0916C40.4424 33.3668 40.8093 33.5503 41.1763 33.6421C39.9378 35.4769 38.3781 37.1283 37.2313 38.2752ZM44.2956 30.431L42.5066 32.22C42.1396 32.587 41.4516 32.587 41.0387 32.22C40.6259 31.8072 40.6259 31.165 41.0387 30.7521L42.8277 28.9631C43.0112 28.7796 43.2864 28.642 43.5617 28.642C43.8369 28.642 44.1121 28.7337 44.2956 28.9631C44.7085 29.3759 44.7085 30.0182 44.2956 30.431ZM30.4881 16.807C30.8092 16.807 31.0844 16.5317 31.0844 16.2106V14.1464C31.0844 13.8253 30.8092 13.55 30.4881 13.55C30.167 13.55 29.8918 13.8253 29.8918 14.1464V16.2106C29.8918 16.5317 30.167 16.807 30.4881 16.807ZM26.8183 17.9538C26.9559 18.0914 27.0936 18.1373 27.2312 18.1373C27.3688 18.1373 27.5523 18.0914 27.644 17.9538C27.8734 17.7244 27.8734 17.3574 27.644 17.0822L26.1761 15.6143C25.9468 15.3849 25.5798 15.3849 25.3045 15.6143C25.0752 15.8437 25.0752 16.2106 25.3045 16.4859L26.8183 17.9538Z" fill="#06464D"/>
<path d="M33.7452 18.1373C33.8828 18.1373 34.0663 18.0914 34.158 17.9538L35.6259 16.4859C35.8553 16.2565 35.8553 15.8895 35.6259 15.6143C35.3966 15.3849 35.0296 15.3849 34.7544 15.6143L33.2864 17.0822C33.0571 17.3116 33.0571 17.6785 33.2864 17.9538C33.4241 18.0914 33.5617 18.1373 33.7452 18.1373ZM28.057 44.2844C28.3781 43.9633 28.3781 43.3669 28.057 43.0458C27.7359 42.7247 27.1396 42.7247 26.8185 43.0458C26.4974 43.3669 26.4974 43.9633 26.8185 44.2844C27.1396 44.6055 27.69 44.6055 28.057 44.2844Z" fill="#06464D"/>
<circle cx="32" cy="31" r="24.0625" stroke="#06464D" stroke-width="1.875"/>
</g>
<defs>
<filter id="filter0_d_469_4365" x="0" y="0.5" width="68.5714" height="68.5714" filterUnits="userSpaceOnUse" color-interpolation-filters="sRGB">
<feFlood flood-opacity="0" result="BackgroundImageFix"/>
<feColorMatrix in="SourceAlpha" type="matrix" values="0 0 0 0 0 0 0 0 0 0 0 0 0 0 0 0 0 0 127 0" result="hardAlpha"/>
<feOffset dx="4.57143" dy="4.57143"/>
<feComposite in2="hardAlpha" operator="out"/>
<feColorMatrix type="matrix" values="0 0 0 0 1 0 0 0 0 1 0 0 0 0 1 0 0 0 0.3 0"/>
<feBlend mode="normal" in2="BackgroundImageFix" result="effect1_dropShadow_469_4365"/>
<feBlend mode="normal" in="SourceGraphic" in2="effect1_dropShadow_469_4365" result="shape"/>
</filter>
</defs>
</svg>