<svg xmlns="http://www.w3.org/2000/svg" width="69" height="69" viewBox="0 0 69 69" fill="none">
<g filter="url(#filter0_d_469_4347)">
<rect width="64" height="64" rx="7.42029" fill="white" shape-rendering="crispEdges"/>
<path d="M40.6114 21.7958H38.3273C38.2227 20.3618 37.6579 18.9999 36.717 17.9128L38.3216 16.3024C38.4038 16.2099 38.4476 16.0895 38.4439 15.9657C38.4403 15.842 38.3895 15.7243 38.302 15.6368C38.2145 15.5493 38.0968 15.4985 37.9731 15.4948C37.8493 15.4912 37.7289 15.535 37.6363 15.6172L36.0317 17.2275C34.9474 16.2819 33.5839 15.7165 32.1487 15.6172V13.333C32.1487 13.2043 32.0975 13.0808 32.0065 12.9898C31.9155 12.8988 31.792 12.8477 31.6633 12.8477C31.5346 12.8477 31.4111 12.8988 31.3201 12.9898C31.229 13.0808 31.1779 13.2043 31.1779 13.333V15.6172C29.7427 15.7165 28.3791 16.2819 27.2948 17.2275L25.7188 15.6172C25.6278 15.5265 25.5046 15.4756 25.3762 15.4756C25.2477 15.4756 25.1245 15.5265 25.0335 15.6172C24.9872 15.6614 24.9504 15.7146 24.9252 15.7735C24.9 15.8324 24.8871 15.8958 24.8871 15.9598C24.8871 16.0239 24.9 16.0872 24.9252 16.1461C24.9504 16.205 24.9872 16.2582 25.0335 16.3024L26.6382 17.9128C25.6947 18.9984 25.1296 20.3611 25.0278 21.7958H22.7437C22.615 21.7958 22.4915 21.8469 22.4005 21.938C22.3094 22.029 22.2583 22.1525 22.2583 22.2812C22.2583 22.4099 22.3094 22.5334 22.4005 22.6244C22.4915 22.7154 22.615 22.7666 22.7437 22.7666H25.0278C25.1279 24.2016 25.6933 25.5649 26.6382 26.6496L25.0335 28.2542C24.9872 28.2985 24.9504 28.3517 24.9252 28.4106C24.9 28.4694 24.8871 28.5328 24.8871 28.5969C24.8871 28.6609 24.9 28.7243 24.9252 28.7832C24.9504 28.8421 24.9872 28.8952 25.0335 28.9395C25.0779 28.9854 25.1312 29.0217 25.1901 29.0463C25.249 29.0708 25.3123 29.0831 25.3762 29.0822C25.5048 29.0819 25.628 29.0306 25.7188 28.9395L27.3234 27.3349C28.4106 28.2758 29.7725 28.8406 31.2065 28.9452V31.2293C31.2065 31.3581 31.2576 31.4815 31.3486 31.5726C31.4396 31.6636 31.5631 31.7147 31.6918 31.7147C31.8206 31.7147 31.944 31.6636 32.0351 31.5726C32.1261 31.4815 32.1772 31.3581 32.1772 31.2293V28.9452C33.6112 28.8406 34.9731 28.2758 36.0603 27.3349L37.6649 28.9395C37.7095 28.9851 37.7628 29.0213 37.8216 29.0458C37.8805 29.0703 37.9437 29.0827 38.0075 29.0822C38.0713 29.0831 38.1346 29.0708 38.1936 29.0463C38.2525 29.0217 38.3058 28.9854 38.3501 28.9395C38.4408 28.8485 38.4917 28.7253 38.4917 28.5969C38.4917 28.4684 38.4408 28.3452 38.3501 28.2542L36.7455 26.6496C37.6858 25.562 38.2505 24.2004 38.3558 22.7666H40.64C40.7687 22.7666 40.8922 22.7154 40.9832 22.6244C41.0742 22.5334 41.1254 22.4099 41.1254 22.2812C41.1254 22.1525 41.0742 22.029 40.9832 21.938C40.8922 21.8469 40.7687 21.7958 40.64 21.7958H40.6114ZM31.6804 28.003C30.551 28.003 29.447 27.6681 28.5079 27.0406C27.5688 26.4132 26.8369 25.5213 26.4047 24.4779C25.9725 23.4344 25.8594 22.2863 26.0798 21.1786C26.3001 20.0709 26.844 19.0534 27.6426 18.2548C28.4412 17.4562 29.4587 16.9123 30.5664 16.692C31.6741 16.4716 32.8222 16.5847 33.8657 17.0169C34.9091 17.4491 35.801 18.181 36.4284 19.1201C37.0559 20.0592 37.3908 21.1632 37.3908 22.2926C37.3908 23.8071 36.7892 25.2596 35.7183 26.3305C34.6474 27.4014 33.1949 28.003 31.6804 28.003Z" fill="#06464D"/>
<path d="M30.2242 17.7247C29.8402 17.7247 29.4649 17.8385 29.1456 18.0519C28.8263 18.2652 28.5775 18.5684 28.4305 18.9232C28.2836 19.278 28.2451 19.6684 28.32 20.045C28.3949 20.4216 28.5798 20.7675 28.8514 21.0391C29.1229 21.3106 29.4689 21.4955 29.8455 21.5704C30.2221 21.6453 30.6125 21.6069 30.9672 21.4599C31.322 21.313 31.6252 21.0641 31.8386 20.7449C32.0519 20.4256 32.1658 20.0502 32.1658 19.6662C32.1658 19.1513 31.9612 18.6574 31.5971 18.2933C31.233 17.9292 30.7392 17.7247 30.2242 17.7247ZM30.2242 20.637C30.0322 20.637 29.8446 20.58 29.6849 20.4734C29.5253 20.3667 29.4008 20.2151 29.3274 20.0377C29.2539 19.8603 29.2347 19.6651 29.2721 19.4768C29.3096 19.2885 29.402 19.1155 29.5378 18.9798C29.6736 18.844 29.8465 18.7515 30.0349 18.7141C30.2232 18.6766 30.4184 18.6959 30.5957 18.7693C30.7731 18.8428 30.9247 18.9672 31.0314 19.1269C31.1381 19.2865 31.195 19.4742 31.195 19.6662C31.192 19.9217 31.0884 20.1657 30.9067 20.3453C30.7249 20.5248 30.4797 20.6256 30.2242 20.6255V20.637Z" fill="#06464D"/>
<path d="M30.2239 23.2422C29.937 23.2422 29.6566 23.3273 29.4181 23.4866C29.1795 23.646 28.9936 23.8725 28.8838 24.1376C28.7741 24.4026 28.7453 24.6942 28.8013 24.9756C28.8573 25.2569 28.9954 25.5154 29.1983 25.7182C29.4011 25.9211 29.6596 26.0592 29.9409 26.1152C30.2223 26.1712 30.5139 26.1424 30.7789 26.0326C31.044 25.9229 31.2705 25.737 31.4299 25.4984C31.5892 25.2599 31.6743 24.9795 31.6743 24.6926C31.6743 24.3079 31.5215 23.939 31.2495 23.667C30.9775 23.395 30.6086 23.2422 30.2239 23.2422ZM30.2239 25.1723C30.129 25.1723 30.0363 25.1442 29.9574 25.0915C29.8785 25.0387 29.817 24.9638 29.7807 24.8762C29.7444 24.7885 29.7349 24.6921 29.7534 24.599C29.7719 24.506 29.8176 24.4205 29.8847 24.3534C29.9518 24.2864 30.0372 24.2407 30.1303 24.2222C30.2233 24.2037 30.3198 24.2132 30.4074 24.2495C30.4951 24.2858 30.57 24.3473 30.6227 24.4261C30.6754 24.505 30.7035 24.5978 30.7035 24.6926C30.6977 24.8158 30.6446 24.9321 30.5552 25.0171C30.4659 25.1022 30.3472 25.1496 30.2239 25.1495V25.1723Z" fill="#06464D"/>
<path d="M34.5357 21.6758C34.2493 21.6781 33.97 21.7651 33.733 21.9258C33.496 22.0865 33.3119 22.3138 33.2038 22.5791C33.0958 22.8443 33.0687 23.1356 33.126 23.4162C33.1832 23.6968 33.3222 23.9541 33.5255 24.1558C33.7288 24.3575 33.9873 24.4946 34.2683 24.5496C34.5494 24.6047 34.8404 24.5753 35.1048 24.4652C35.3691 24.3551 35.595 24.1691 35.7539 23.9309C35.9128 23.6926 35.9975 23.4126 35.9976 23.1263C35.9976 22.9348 35.9597 22.7453 35.8861 22.5686C35.8125 22.3918 35.7046 22.2314 35.5687 22.0966C35.4328 21.9618 35.2716 21.8552 35.0943 21.7829C34.917 21.7107 34.7271 21.6743 34.5357 21.6758ZM34.5357 23.6059C34.4408 23.6059 34.3481 23.5778 34.2692 23.5251C34.1903 23.4724 34.1288 23.3975 34.0925 23.3098C34.0562 23.2222 34.0467 23.1257 34.0652 23.0327C34.0837 22.9396 34.1294 22.8542 34.1965 22.7871C34.2636 22.72 34.3491 22.6743 34.4421 22.6558C34.5352 22.6373 34.6316 22.6468 34.7193 22.6831C34.8069 22.7194 34.8818 22.7809 34.9345 22.8598C34.9872 22.9387 35.0154 23.0314 35.0154 23.1263C35.0139 23.253 34.9629 23.3742 34.8732 23.4638C34.7836 23.5534 34.6625 23.6044 34.5357 23.6059Z" fill="#06464D"/>
<path d="M28.5736 41.2288H27.1117C27.0163 40.2965 26.649 39.4128 26.0553 38.6877L27.0718 37.6712C27.154 37.5787 27.1978 37.4583 27.1941 37.3345C27.1905 37.2108 27.1397 37.0931 27.0522 37.0056C26.9646 36.9181 26.847 36.8673 26.7232 36.8636C26.5995 36.86 26.4791 36.9038 26.3865 36.986L25.3701 38.0024C24.6449 37.4088 23.7613 37.0414 22.829 36.946V35.5127C22.829 35.384 22.7778 35.2605 22.6868 35.1695C22.5958 35.0785 22.4723 35.0273 22.3436 35.0273C22.2149 35.0273 22.0914 35.0785 22.0004 35.1695C21.9093 35.2605 21.8582 35.384 21.8582 35.5127V36.946C20.9259 37.0414 20.0422 37.4088 19.3171 38.0024L18.2949 36.986C18.204 36.8953 18.0807 36.8444 17.9523 36.8444C17.8239 36.8444 17.7007 36.8953 17.6097 36.986C17.5634 37.0303 17.5265 37.0834 17.5014 37.1423C17.4762 37.2012 17.4632 37.2646 17.4632 37.3286C17.4632 37.3927 17.4762 37.456 17.5014 37.5149C17.5265 37.5738 17.5634 37.627 17.6097 37.6712L18.6261 38.6877C18.0301 39.4114 17.6624 40.2958 17.5697 41.2288H16.1421C16.0134 41.2288 15.8899 41.2799 15.7989 41.371C15.7079 41.462 15.6567 41.5855 15.6567 41.7142C15.6567 41.8429 15.7079 41.9664 15.7989 42.0574C15.8899 42.1484 16.0134 42.1996 16.1421 42.1996H17.5754C17.6682 43.1325 18.0358 44.017 18.6318 44.7407L17.6154 45.7571C17.5691 45.8014 17.5323 45.8546 17.5071 45.9135C17.4819 45.9723 17.4689 46.0357 17.4689 46.0998C17.4689 46.1638 17.4819 46.2272 17.5071 46.2861C17.5323 46.345 17.5691 46.3981 17.6154 46.4424C17.6598 46.4883 17.713 46.5246 17.772 46.5492C17.8309 46.5737 17.8942 46.586 17.958 46.5851C18.0218 46.5856 18.085 46.5732 18.1439 46.5487C18.2028 46.5242 18.2561 46.488 18.3006 46.4424L19.3171 45.4259C20.0408 46.0219 20.9252 46.3896 21.8582 46.4824V47.9214C21.8582 48.0501 21.9093 48.1736 22.0004 48.2646C22.0914 48.3556 22.2149 48.4067 22.3436 48.4067C22.4723 48.4067 22.5958 48.3556 22.6868 48.2646C22.7778 48.1736 22.829 48.0501 22.829 47.9214V46.4824C23.7619 46.3896 24.6463 46.0219 25.3701 45.4259L26.3865 46.4424C26.4311 46.488 26.4844 46.5242 26.5433 46.5487C26.6022 46.5732 26.6654 46.5856 26.7292 46.5851C26.793 46.586 26.8563 46.5737 26.9152 46.5492C26.9741 46.5246 27.0274 46.4883 27.0718 46.4424C27.1624 46.3514 27.2133 46.2282 27.2133 46.0998C27.2133 45.9713 27.1624 45.8481 27.0718 45.7571L26.0553 44.7407C26.649 44.0155 27.0163 43.1319 27.1117 42.1996H28.5736C28.7023 42.1996 28.8258 42.1484 28.9168 42.0574C29.0078 41.9664 29.059 41.8429 29.059 41.7142C29.059 41.5855 29.0078 41.462 28.9168 41.371C28.8258 41.2799 28.7023 41.2288 28.5736 41.2288ZM22.3436 45.5401C21.5869 45.5413 20.8468 45.318 20.217 44.8985C19.5872 44.4791 19.096 43.8823 18.8054 43.1836C18.5147 42.4849 18.4378 41.7158 18.5843 40.9734C18.7309 40.231 19.0942 39.5487 19.6285 39.0129C20.1628 38.477 20.8439 38.1116 21.5859 37.9629C22.3278 37.8141 23.0972 37.8888 23.7967 38.1773C24.4963 38.4658 25.0945 38.9553 25.5159 39.5839C25.9372 40.2124 26.1627 40.9518 26.1638 41.7085C26.1638 42.7227 25.7617 43.6956 25.0456 44.4138C24.3295 45.1321 23.3578 45.5371 22.3436 45.5401Z" fill="#06464D"/>
<path d="M23.1719 42.2808C23.1719 42.5067 23.2389 42.7275 23.3643 42.9153C23.4898 43.1031 23.6682 43.2495 23.8769 43.3359C24.0856 43.4224 24.3152 43.445 24.5368 43.4009C24.7583 43.3569 24.9618 43.2481 25.1215 43.0884C25.2812 42.9287 25.39 42.7252 25.4341 42.5036C25.4781 42.2821 25.4555 42.0524 25.3691 41.8438C25.2826 41.6351 25.1363 41.4567 24.9485 41.3312C24.7606 41.2057 24.5398 41.1387 24.3139 41.1387C24.0111 41.1387 23.7206 41.2591 23.5064 41.4732C23.2922 41.6874 23.1719 41.9779 23.1719 42.2808ZM24.5138 42.2808C24.5138 42.3308 24.494 42.3787 24.4586 42.4141C24.4233 42.4494 24.3753 42.4693 24.3254 42.4693C24.3009 42.4693 24.2766 42.4644 24.2541 42.4548C24.2315 42.4453 24.2111 42.4313 24.1941 42.4137C24.1771 42.3961 24.1637 42.3753 24.1549 42.3525C24.146 42.3297 24.1419 42.3053 24.1426 42.2808C24.1426 42.2323 24.1619 42.1859 24.1962 42.1516C24.2304 42.1173 24.2769 42.0981 24.3254 42.0981C24.3498 42.0973 24.3742 42.1015 24.3971 42.1103C24.4199 42.1191 24.4407 42.1325 24.4583 42.1495C24.4759 42.1666 24.4898 42.187 24.4994 42.2095C24.5089 42.2321 24.5138 42.2563 24.5138 42.2808Z" fill="#06464D"/>
<path d="M46.79 38.9455H45.351C45.2583 38.0125 44.8906 37.1281 44.2946 36.4043L45.3167 35.3879C45.3617 35.3425 45.3974 35.2887 45.4216 35.2296C45.4458 35.1705 45.4581 35.1071 45.4578 35.0433C45.4576 34.9794 45.4447 34.9161 45.42 34.8572C45.3953 34.7983 45.3593 34.7448 45.3139 34.6998C45.2685 34.6548 45.2147 34.6192 45.1556 34.595C45.0965 34.5708 45.0331 34.5584 44.9692 34.5587C44.9053 34.559 44.8421 34.5718 44.7832 34.5965C44.7243 34.6212 44.6708 34.6573 44.6258 34.7026L43.6093 35.7191C42.8856 35.1231 42.0012 34.7554 41.0682 34.6627V33.2237C41.0682 33.0949 41.0171 32.9715 40.9261 32.8804C40.835 32.7894 40.7116 32.7383 40.5828 32.7383C40.4541 32.7383 40.3307 32.7894 40.2396 32.8804C40.1486 32.9715 40.0975 33.0949 40.0975 33.2237V34.6627C39.1645 34.7554 38.2801 35.1231 37.5563 35.7191L36.5685 34.7026C36.5242 34.6564 36.471 34.6195 36.4121 34.5943C36.3533 34.5692 36.2899 34.5562 36.2258 34.5562C36.1618 34.5562 36.0984 34.5692 36.0395 34.5943C35.9806 34.6195 35.9275 34.6564 35.8832 34.7026C35.7925 34.7936 35.7416 34.9168 35.7416 35.0453C35.7416 35.1737 35.7925 35.2969 35.8832 35.3879L36.8997 36.4043C36.306 37.1295 35.9386 38.0132 35.8432 38.9455H34.3814C34.2526 38.9455 34.1292 38.9966 34.0382 39.0876C33.9471 39.1786 33.896 39.3021 33.896 39.4308C33.896 39.5596 33.9471 39.683 34.0382 39.7741C34.1292 39.8651 34.2526 39.9162 34.3814 39.9162H35.8147C35.9101 40.8485 36.2775 41.7322 36.8711 42.4573L35.8547 43.4738C35.764 43.5648 35.7131 43.688 35.7131 43.8164C35.7131 43.9448 35.764 44.068 35.8547 44.159C35.8992 44.2046 35.9525 44.2408 36.0114 44.2653C36.0703 44.2899 36.1335 44.3023 36.1973 44.3018C36.2611 44.3026 36.3244 44.2904 36.3833 44.2658C36.4423 44.2413 36.4955 44.2049 36.5399 44.159L37.5563 43.1426C38.2815 43.7362 39.1652 44.1036 40.0975 44.199V45.6323C40.0975 45.761 40.1486 45.8845 40.2396 45.9755C40.3307 46.0665 40.4541 46.1177 40.5828 46.1177C40.7116 46.1177 40.835 46.0665 40.9261 45.9755C41.0171 45.8845 41.0682 45.761 41.0682 45.6323V44.199C42.0005 44.1036 42.8842 43.7362 43.6093 43.1426L44.6258 44.159C44.7167 44.2507 44.8402 44.3024 44.9692 44.303C45.0983 44.3035 45.2223 44.2527 45.3139 44.1619C45.4055 44.071 45.4573 43.9475 45.4578 43.8184C45.4584 43.6894 45.4076 43.5654 45.3167 43.4738L44.2946 42.4573C44.8906 41.7336 45.2583 40.8492 45.351 39.9162H46.79C46.9187 39.9162 47.0422 39.8651 47.1332 39.7741C47.2243 39.683 47.2754 39.5596 47.2754 39.4308C47.2754 39.3021 47.2243 39.1786 47.1332 39.0876C47.0422 38.9966 46.9187 38.9455 46.79 38.9455ZM40.5657 43.2511C39.8097 43.2477 39.0717 43.0204 38.4448 42.598C37.8179 42.1755 37.3302 41.5768 37.0432 40.8774C36.7563 40.178 36.683 39.4093 36.8325 38.6683C36.9821 37.9272 37.3478 37.2471 37.8835 36.7138C38.4193 36.1804 39.101 35.8177 39.8427 35.6715C40.5844 35.5252 41.3528 35.602 42.0509 35.8921C42.749 36.1822 43.3455 36.6725 43.7652 37.3013C44.1848 37.9301 44.4088 38.6692 44.4088 39.4251C44.4088 39.929 44.3093 40.4279 44.1159 40.8932C43.9226 41.3585 43.6392 41.7811 43.2821 42.1366C42.9251 42.4921 42.5013 42.7735 42.0351 42.9648C41.5689 43.156 41.0696 43.2533 40.5657 43.2511Z" fill="#06464D"/>
<path d="M39.5723 36.1133C39.2764 36.1133 38.9871 36.201 38.7411 36.3654C38.4951 36.5298 38.3033 36.7635 38.1901 37.0369C38.0768 37.3102 38.0472 37.6111 38.1049 37.9013C38.1626 38.1915 38.3051 38.4581 38.5144 38.6673C38.7236 38.8765 38.9902 39.019 39.2804 39.0768C39.5706 39.1345 39.8715 39.1049 40.1448 38.9916C40.4182 38.8784 40.6519 38.6866 40.8163 38.4406C40.9807 38.1946 41.0684 37.9053 41.0684 37.6094C41.0684 37.2126 40.9108 36.8321 40.6302 36.5515C40.3496 36.2709 39.9691 36.1133 39.5723 36.1133ZM39.5723 38.1348C39.4684 38.1348 39.3668 38.1039 39.2804 38.0462C39.194 37.9885 39.1267 37.9064 39.0869 37.8104C39.0472 37.7144 39.0368 37.6088 39.057 37.5069C39.0773 37.405 39.1273 37.3114 39.2008 37.2379C39.2743 37.1644 39.3679 37.1144 39.4698 37.0941C39.5717 37.0739 39.6773 37.0843 39.7733 37.124C39.8693 37.1638 39.9514 37.2311 40.0091 37.3175C40.0668 37.4039 40.0976 37.5055 40.0976 37.6094C40.0976 37.7487 40.0423 37.8824 39.9438 37.9809C39.8452 38.0794 39.7116 38.1348 39.5723 38.1348Z" fill="#06464D"/>
<path d="M32 6.42969C27.0555 6.42969 22.222 7.89591 18.1108 10.6429C13.9995 13.39 10.7952 17.2945 8.90302 21.8626C7.01083 26.4308 6.51575 31.4574 7.48038 36.307C8.44501 41.1565 10.826 45.6111 14.3223 49.1074C17.8187 52.6037 22.2732 54.9847 27.1228 55.9493C31.9723 56.914 36.999 56.4189 41.5671 54.5267C46.1353 52.6345 50.0397 49.4302 52.7868 45.319C55.5338 41.2077 57 36.3742 57 31.4297C56.9925 24.8016 54.3561 18.4471 49.6694 13.7604C44.9826 9.07359 38.6281 6.43724 32 6.42969ZM32 7.89154C37.9911 7.89017 43.7554 10.1828 48.109 14.2986L14.8689 47.5387C11.7201 44.1953 9.61904 40.0032 8.8249 35.4796C8.03076 30.9561 8.57831 26.299 10.4 22.083C12.2217 17.8671 15.2378 14.2766 19.0762 11.7547C22.9146 9.23287 27.4073 7.8899 32 7.89154ZM32 54.9679C26.0089 54.9692 20.2447 52.6766 15.8911 48.5608L49.1311 15.3207C52.2799 18.6641 54.381 22.8562 55.1751 27.3798C55.9693 31.9033 55.4217 36.5604 53.6 40.7764C51.7784 44.9923 48.7623 48.5828 44.9239 51.1047C41.0855 53.6265 36.5927 54.9695 32 54.9679Z" fill="#06464D"/>
</g>
<defs>
<filter id="filter0_d_469_4347" x="0" y="0" width="68.5714" height="68.5714" filterUnits="userSpaceOnUse" color-interpolation-filters="sRGB">
<feFlood flood-opacity="0" result="BackgroundImageFix"/>
<feColorMatrix in="SourceAlpha" type="matrix" values="0 0 0 0 0 0 0 0 0 0 0 0 0 0 0 0 0 0 127 0" result="hardAlpha"/>
<feOffset dx="4.57143" dy="4.57143"/>
<feComposite in2="hardAlpha" operator="out"/>
<feColorMatrix type="matrix" values="0 0 0 0 1 0 0 0 0 1 0 0 0 0 1 0 0 0 0.3 0"/>
<feBlend mode="normal" in2="BackgroundImageFix" result="effect1_dropShadow_469_4347"/>
<feBlend mode="normal" in="SourceGraphic" in2="effect1_dropShadow_469_4347" result="shape"/>
</filter>
</defs>
</svg>