<svg xmlns="http://www.w3.org/2000/svg" width="36" height="36" viewBox="0 0 36 36" fill="none" >
<circle cx="17.9999" cy="17.9999" r="17.0999" stroke="white" stroke-width="1.79999"/>
<path d="M28.1781 12.1501C27.2287 12.1501 26.4345 12.8458 26.2467 13.7691H19.9301C19.7425 12.8458 18.9494 12.1501 18.0014 12.1501C17.052 12.1501 16.2576 12.8458 16.0696 13.7691H9.7534C9.5657 12.8458 8.77241 12.1501 7.82436 12.1501C6.73564 12.1501 5.8501 13.0645 5.8501 14.1883C5.8501 14.2569 5.85366 14.3256 5.86039 14.3895C5.95703 15.4384 6.80139 16.2293 7.82436 16.2293C8.77419 16.2293 9.56149 15.5425 9.7458 14.6075H14.4421C12.2558 15.6893 10.6226 17.7312 10.0313 20.2263C9.02587 20.3087 8.21921 21.1909 8.21921 22.259C8.21921 23.3845 9.10516 24.3001 10.1939 24.3001C10.2608 24.3001 10.3285 24.2964 10.3899 24.289C11.4038 24.186 12.1685 23.3132 12.1685 22.259C12.1685 21.3678 11.6188 20.6117 10.8398 20.3355C11.5113 17.6427 13.5355 15.5501 16.1404 14.8557C16.4068 15.6625 17.1375 16.2293 18.0014 16.2293C18.8657 16.2293 19.5965 15.6605 19.8606 14.8561C22.4652 15.5507 24.4888 17.643 25.1601 20.3352C24.3798 20.6108 23.8315 21.3662 23.8315 22.259C23.8315 23.3165 24.5967 24.1893 25.6038 24.2884C25.6707 24.2964 25.7385 24.3001 25.8058 24.3001C26.8945 24.3001 27.7805 23.3845 27.7805 22.259C27.7805 21.1918 26.9813 20.3234 25.9708 20.2351C25.3813 17.736 23.7468 15.6906 21.5578 14.6075H26.2544C26.4408 15.5443 27.2284 16.2293 28.1781 16.2293C29.1999 16.2293 30.043 15.4384 30.1385 14.3973C30.1464 14.3277 30.15 14.2579 30.15 14.1883C30.15 13.0645 29.2652 12.1501 28.1781 12.1501ZM11.3574 22.259C11.3574 22.8799 10.9075 23.3939 10.3044 23.4553C9.62555 23.5345 9.0303 22.9599 9.0303 22.259C9.0303 21.5958 9.55229 21.0562 10.1939 21.0562C10.2311 21.0562 10.2687 21.0585 10.3107 21.0632C10.9075 21.124 11.3574 21.6382 11.3574 22.259ZM26.9694 22.259C26.9694 22.9221 26.4474 23.4616 25.8058 23.4616C25.7694 23.4616 25.7325 23.4596 25.6882 23.4545C25.0921 23.3959 24.6426 22.8819 24.6426 22.259C24.6426 21.6462 25.102 21.1211 25.6945 21.0628C25.7313 21.0585 25.7686 21.0562 25.8058 21.0562C26.4474 21.0562 26.9694 21.5958 26.9694 22.259ZM8.97842 14.3103C8.92179 14.9262 8.42555 15.3909 7.82436 15.3909C7.22198 15.3909 6.72456 14.9262 6.66713 14.3054C6.66317 14.2663 6.66119 14.2274 6.66119 14.1883C6.66119 13.5267 7.18317 12.9886 7.82436 12.9886C8.46436 12.9886 8.98516 13.5267 8.98516 14.1883C8.98516 14.2274 8.98278 14.2663 8.97842 14.3103ZM18.0014 15.3909C17.3986 15.3909 16.9012 14.9262 16.8442 14.3054C16.8402 14.2663 16.8378 14.2274 16.8378 14.1883C16.8378 13.5267 17.3598 12.9886 18.0014 12.9886C18.6414 12.9886 19.1618 13.5267 19.1618 14.1883C19.1618 14.2264 19.1598 14.2642 19.1551 14.3103C19.0984 14.9262 18.6026 15.3909 18.0014 15.3909ZM29.3321 14.3103C29.2755 14.9262 28.7793 15.3909 28.1781 15.3909C27.5757 15.3909 27.0783 14.9262 27.0208 14.3054C27.0169 14.2663 27.0149 14.2274 27.0149 14.1883C27.0149 13.5267 27.5369 12.9886 28.1781 12.9886C28.8181 12.9886 29.3389 13.5267 29.3389 14.1883C29.3389 14.2264 29.3369 14.2642 29.3321 14.3103Z" fill="white"/>
</svg>