<svg xmlns="http://www.w3.org/2000/svg" width="37" height="36" viewBox="0 0 37 36" fill="none">
<path d="M21.8874 11.5915L19.5723 13.9067L18.3453 12.6797C18.2392 12.5736 18.0651 12.5736 17.959 12.6797C17.8529 12.7858 17.8529 12.9599 17.959 13.066L19.3791 14.4862C19.4308 14.5379 19.4988 14.5651 19.5723 14.5651C19.6457 14.5651 19.7137 14.5351 19.7654 14.4862L22.2738 11.9778C22.3799 11.8717 22.3799 11.6976 22.2738 11.5915C22.1649 11.4854 21.9935 11.4854 21.8874 11.5915Z" fill="white"/>
<path d="M25.5958 10.8165C25.7645 10.3404 25.6883 9.80991 25.389 9.39911C25.0925 8.98831 24.6028 8.75434 24.1049 8.76522C23.6697 8.78427 23.2561 8.48501 23.1283 8.05516C22.9841 7.57091 22.6114 7.18731 22.1271 7.02952C21.6456 6.87445 21.1178 6.96422 20.7152 7.27165C20.3615 7.5437 19.8663 7.5437 19.51 7.27165C19.11 6.96422 18.5795 6.87445 18.098 7.02952C17.6165 7.18731 17.2437 7.56818 17.0996 8.05516C16.9717 8.48501 16.5609 8.77611 16.1229 8.76522C15.6141 8.75434 15.1353 8.98831 14.8388 9.39911C14.5422 9.80991 14.4633 10.3377 14.632 10.8165C14.7817 11.2382 14.6266 11.7088 14.2593 11.9646C13.8431 12.2502 13.5928 12.7263 13.5928 13.2324C13.5928 13.7384 13.8431 14.2117 14.2593 14.5001C14.6293 14.7531 14.7817 15.2238 14.632 15.6482C14.4633 16.127 14.5395 16.6548 14.8388 17.0656C15.1353 17.4764 15.6169 17.7104 16.1229 17.6995C16.5609 17.6832 16.9717 17.9797 17.0996 18.4095C17.2437 18.8938 17.6165 19.2774 18.098 19.4352C18.2531 19.4869 18.4136 19.5114 18.5741 19.5114C18.9087 19.5114 19.2379 19.4025 19.51 19.1931C19.8663 18.921 20.3615 18.921 20.7152 19.1931C21.1178 19.5005 21.6456 19.593 22.1271 19.4352C22.6087 19.2774 22.9814 18.8965 23.1256 18.4095C23.2534 17.9797 23.6642 17.6859 24.1022 17.6995C24.5974 17.7076 25.0898 17.4764 25.3863 17.0656C25.6829 16.6548 25.7618 16.127 25.5931 15.6482C25.4435 15.2265 25.5958 14.7559 25.9658 14.5001C26.382 14.2117 26.6323 13.7384 26.6323 13.2324C26.6323 12.7263 26.382 12.253 25.9658 11.9646C25.6012 11.7088 25.4462 11.2382 25.5958 10.8165ZM25.6584 12.4135C25.9304 12.6012 26.0882 12.9004 26.0882 13.2296C26.0882 13.5615 25.9304 13.8581 25.6584 14.0458C25.0871 14.4403 24.8477 15.1721 25.0789 15.825C25.1904 16.1379 25.1415 16.4698 24.9456 16.7391C24.7497 17.0057 24.4396 17.1608 24.1186 17.1472C23.4275 17.1336 22.8018 17.5825 22.6032 18.2463C22.508 18.5646 22.274 18.804 21.9584 18.9074C21.6456 19.0108 21.311 18.9537 21.0498 18.7523C20.4975 18.3307 19.7276 18.3307 19.178 18.7523C18.9142 18.9537 18.5822 19.0108 18.2694 18.9074C17.9538 18.804 17.7198 18.5646 17.6246 18.2463C17.4315 17.5934 16.8275 17.1445 16.1501 17.1445C16.1365 17.1445 16.1229 17.1445 16.1093 17.1445C15.7692 17.1554 15.4754 17.003 15.2822 16.7364C15.0891 16.4698 15.0401 16.1352 15.1489 15.8223C15.3802 15.1667 15.1408 14.4348 14.5694 14.0431C14.2974 13.8554 14.1396 13.5561 14.1396 13.2269C14.1396 12.895 14.2974 12.5985 14.5694 12.4107C15.1408 12.0163 15.3802 11.2844 15.1489 10.6315C15.0374 10.3187 15.0864 9.98675 15.2822 9.71741C15.4781 9.44808 15.7719 9.29573 16.1093 9.30933C16.7949 9.31477 17.426 8.87405 17.6246 8.21023C17.7198 7.89193 17.9538 7.65252 18.2694 7.54914C18.585 7.44576 18.9169 7.50289 19.178 7.70421C19.7303 8.1259 20.4975 8.1259 21.0498 7.70421C21.3137 7.50289 21.6456 7.44576 21.9584 7.54914C22.274 7.65252 22.508 7.89193 22.6032 8.21023C22.7964 8.86316 23.4003 9.31205 24.0777 9.31205C24.0913 9.31205 24.1049 9.31205 24.1186 9.31205C24.4396 9.29845 24.7524 9.45352 24.9456 9.72013C25.1388 9.98947 25.1877 10.3214 25.0789 10.6342C24.8477 11.2872 25.0871 12.0217 25.6584 12.4135Z" fill="white"/>
<path d="M20.1166 8.98508C17.7769 8.98508 15.8726 10.8895 15.8726 13.2291C15.8726 15.5688 17.7769 17.4732 20.1166 17.4732C22.4563 17.4732 24.3607 15.5688 24.3607 13.2291C24.3607 10.8895 22.4563 8.98508 20.1166 8.98508ZM20.1166 16.9291C18.0789 16.9291 16.4194 15.2695 16.4194 13.2318C16.4194 11.1914 18.0789 9.53463 20.1166 9.53463C22.157 9.53463 23.8138 11.1942 23.8138 13.2318C23.8138 15.2695 22.157 16.9291 20.1166 16.9291Z" fill="white"/>
<path d="M9.46821 22.931L12.5968 20.9994C12.9233 20.7981 13.3287 20.7736 13.6851 20.9395C14.776 21.4428 16.3185 22.0495 17.5564 22.5365C18.1848 22.7841 18.7425 23.0017 19.137 23.1677C19.4852 23.3173 19.8498 23.4615 20.2225 23.6002C20.4755 23.6982 20.7149 23.788 20.7938 23.9866C20.8374 24.0981 20.8265 24.2178 20.7585 24.3457C20.6524 24.5415 20.4293 24.7021 20.2062 24.7483C19.8961 24.8109 19.5587 24.7184 19.2023 24.6232C19.0989 24.596 18.9983 24.5687 18.9003 24.5443C18.3807 24.4191 16.6722 24.0219 16.0683 23.9131C15.9213 23.8859 15.7772 23.9838 15.7499 24.1335C15.7227 24.2831 15.8234 24.4246 15.9703 24.4518C16.5307 24.5524 18.1794 24.936 18.7725 25.0775C18.8677 25.0993 18.9629 25.1265 19.0581 25.1509C19.3465 25.2298 19.6648 25.3142 19.9913 25.3142C20.0974 25.3142 20.2062 25.306 20.3123 25.2843C20.6986 25.2054 21.0523 24.9469 21.2373 24.6068C21.376 24.3538 21.3978 24.0763 21.3107 23.826C22.1786 23.3391 23.1226 22.7868 23.9633 22.2889C24.5319 21.9516 25.0406 21.6523 25.4051 21.4456C25.767 21.2524 26.1043 21.0538 26.4308 20.8498C26.7001 20.6893 26.8906 20.5913 27.0783 20.6484C27.1925 20.6811 27.2796 20.7627 27.3367 20.8933C27.4265 21.0973 27.4184 21.3748 27.3286 21.5571C27.0103 21.9625 21.8222 25.7032 19.605 27.3029L19.1533 27.6266C18.5303 28.0755 17.7686 28.2578 17.0096 28.1354L9.37844 26.9193C9.22609 26.8948 9.09006 26.9955 9.06557 27.1451C9.04109 27.2947 9.14447 27.4335 9.29138 27.458L16.9225 28.674C17.1075 28.704 17.2898 28.7176 17.472 28.7176C18.1876 28.7176 18.884 28.4945 19.4744 28.0674L19.9233 27.7436C25.6718 23.6057 27.6578 22.1121 27.8074 21.8264C27.9842 21.4701 27.9978 21.0293 27.84 20.6729C27.7176 20.3954 27.5 20.1996 27.2388 20.1261C26.809 19.9928 26.4471 20.2077 26.1234 20.4009C25.8268 20.5886 25.5004 20.779 25.144 20.9695C24.7713 21.1817 24.2625 21.4809 23.6885 21.8183C22.8288 22.3243 21.863 22.8929 20.9843 23.3853C20.8047 23.2493 20.5952 23.1595 20.3994 23.0833C20.0484 22.9527 19.692 22.8113 19.3519 22.6644C18.9493 22.4957 18.3889 22.2753 17.7577 22.0278C16.5253 21.5435 14.9909 20.9395 13.9136 20.4444C13.3912 20.2023 12.7927 20.2376 12.3085 20.5369L9.17984 22.4685C9.05197 22.5474 9.01116 22.7161 9.09006 22.8439C9.17168 22.9718 9.34035 23.0099 9.46821 22.931Z" fill="white"/>
<circle cx="18.5" cy="18" r="17.325" stroke="white" stroke-width="1.35"/>
</svg>