<svg xmlns="http://www.w3.org/2000/svg" width="69" height="69" viewBox="0 0 69 69" fill="none">
<g filter="url(#filter0_d_469_4384)">
<rect width="64" height="64" rx="7.42029" fill="white" shape-rendering="crispEdges"/>
<circle cx="32" cy="32" r="24.0625" stroke="#06464D" stroke-width="1.875"/>
<path d="M35.5161 32.2356C35.1927 32.2356 34.9302 32.4981 34.9302 32.8215C34.9302 33.1449 35.1927 33.4074 35.5161 33.4074C35.8395 33.4074 36.102 33.1449 36.102 32.8215C36.102 32.4981 35.8395 32.2356 35.5161 32.2356Z" fill="#06464D"/>
<path d="M17.1471 30.8644C17.1486 30.8662 17.15 30.8682 17.1517 30.87L17.1523 30.8708L31.566 46.8079C31.6734 46.9267 31.8362 47.0008 32.0006 47.0008C32.1645 47.0008 32.3269 46.9275 32.4352 46.8079L46.8488 30.8708L46.8495 30.87C46.8511 30.8682 46.8525 30.8662 46.8541 30.8644C46.944 30.7621 46.9954 30.6316 46.9995 30.4954C47.0036 30.3592 46.96 30.2259 46.8764 30.1184C46.8747 30.1163 46.8735 30.1139 46.8718 30.1118L42.1844 24.2526C42.1295 24.1839 42.0599 24.1285 41.9807 24.0905C41.9015 24.0524 41.8147 24.0327 41.7269 24.0327H22.2743C22.1864 24.0327 22.0997 24.0524 22.0205 24.0905C21.9413 24.1285 21.8716 24.1839 21.8167 24.2526L17.1294 30.1118C17.1277 30.1139 17.1265 30.1162 17.1248 30.1184C17.0412 30.2259 16.9977 30.3592 17.0017 30.4954C17.0058 30.6315 17.0572 30.762 17.1471 30.8644ZM28.8167 25.2045H35.1844L37.9968 29.8919H26.0043L28.8167 25.2045ZM25.8684 31.0637H38.1327L32.0005 44.9633L25.8684 31.0637ZM39.4135 31.0637H45.0943L34.0033 43.3269L39.4135 31.0637ZM24.5876 31.0637L29.9978 43.3269L18.9067 31.0637H24.5876ZM45.1951 29.8919H39.3633L36.5509 25.2045H41.4452L45.1951 29.8919ZM22.5558 25.2045H27.4501L24.6377 29.8919H18.8059L22.5558 25.2045Z" fill="#06464D"/>
<path d="M33.1727 32.2355H28.8239C28.5003 32.2355 28.238 32.4979 28.238 32.8215C28.238 33.1451 28.5003 33.4074 28.8239 33.4074H33.1727C33.4963 33.4074 33.7586 33.1451 33.7586 32.8215C33.7586 32.4979 33.4963 32.2355 33.1727 32.2355ZM32.0008 21.689C32.3244 21.689 32.5867 21.4266 32.5867 21.103V17.5875C32.5867 17.2639 32.3244 17.0016 32.0008 17.0016C31.6772 17.0016 31.4149 17.2639 31.4149 17.5875V21.103C31.4149 21.4266 31.6772 21.689 32.0008 21.689ZM35.9307 21.5173L38.2744 19.1737C38.5032 18.9449 38.5032 18.5738 38.2744 18.345C38.0456 18.1161 37.6746 18.1162 37.4457 18.345L35.102 20.6887C34.8732 20.9175 34.8732 21.2885 35.102 21.5173C35.3308 21.7461 35.7018 21.7462 35.9307 21.5173ZM28.071 21.5173C28.2998 21.7461 28.6708 21.7461 28.8996 21.5173C29.1284 21.2885 29.1284 20.9175 28.8996 20.6887L26.556 18.345C26.3272 18.1162 25.9561 18.1162 25.7273 18.345C25.4984 18.5738 25.4985 18.9448 25.7273 19.1737L28.071 21.5173Z" fill="#06464D"/>
</g>
<defs>
<filter id="filter0_d_469_4384" x="0" y="0" width="68.5714" height="68.5714" filterUnits="userSpaceOnUse" color-interpolation-filters="sRGB">
<feFlood flood-opacity="0" result="BackgroundImageFix"/>
<feColorMatrix in="SourceAlpha" type="matrix" values="0 0 0 0 0 0 0 0 0 0 0 0 0 0 0 0 0 0 127 0" result="hardAlpha"/>
<feOffset dx="4.57143" dy="4.57143"/>
<feComposite in2="hardAlpha" operator="out"/>
<feColorMatrix type="matrix" values="0 0 0 0 1 0 0 0 0 1 0 0 0 0 1 0 0 0 0.3 0"/>
<feBlend mode="normal" in2="BackgroundImageFix" result="effect1_dropShadow_469_4384"/>
<feBlend mode="normal" in="SourceGraphic" in2="effect1_dropShadow_469_4384" result="shape"/>
</filter>
</defs>
</svg>