<svg xmlns="http://www.w3.org/2000/svg" width="25" height="24" viewBox="0 0 25 24" fill="none">
<path d="M16 7.5C16 9.433 14.433 11 12.5 11C10.567 11 9 9.433 9 7.5C9 5.567 10.567 4 12.5 4C14.433 4 16 5.567 16 7.5Z" fill="#7C7C7C"/>
<path opacity="0.4" d="M20 7.5C20 8.88071 18.8807 10 17.5 10C16.1193 10 15 8.88071 15 7.5C15 6.11929 16.1193 5 17.5 5C18.8807 5 20 6.11929 20 7.5Z" fill="#7C7C7C"/>
<path opacity="0.4" d="M5 7.5C5 8.88071 6.11929 10 7.5 10C8.88071 10 10 8.88071 10 7.5C10 6.11929 8.88071 5 7.5 5C6.11929 5 5 6.11929 5 7.5Z" fill="#7C7C7C"/>
<path d="M18.5 16.5C18.5 18.433 15.8137 20 12.5 20C9.18629 20 6.5 18.433 6.5 16.5C6.5 14.567 9.18629 13 12.5 13C15.8137 13 18.5 14.567 18.5 16.5Z" fill="#7C7C7C"/>
<path opacity="0.4" d="M22.5 16.5C22.5 17.8807 20.7091 19 18.5 19C16.2909 19 14.5 17.8807 14.5 16.5C14.5 15.1193 16.2909 14 18.5 14C20.7091 14 22.5 15.1193 22.5 16.5Z" fill="#7C7C7C"/>
<path opacity="0.4" d="M2.5 16.5C2.5 17.8807 4.29086 19 6.5 19C8.70914 19 10.5 17.8807 10.5 16.5C10.5 15.1193 8.70914 14 6.5 14C4.29086 14 2.5 15.1193 2.5 16.5Z" fill="#7C7C7C"/>
</svg>