<svg xmlns="http://www.w3.org/2000/svg" width="24" height="25" viewBox="0 0 24 25" fill="none">
<g id="Linear / Shopping, Ecommerce / Cart Large Minimalistic">
<path id="Vector" d="M7.55104 18.3548C8.37011 18.3548 9.03409 19.0188 9.03409 19.8379C9.03409 20.6569 8.37011 21.3209 7.55104 21.3209C6.73198 21.3209 6.06799 20.6569 6.06799 19.8379C6.06799 19.0188 6.73198 18.3548 7.55104 18.3548Z" stroke="white" stroke-width="1.52542"/>
<path id="Vector_2" d="M16.4494 18.3549C17.2684 18.3549 17.9324 19.0189 17.9324 19.8379C17.9324 20.657 17.2684 21.321 16.4494 21.321C15.6303 21.321 14.9663 20.657 14.9663 19.8379C14.9663 19.0189 15.6303 18.3549 16.4494 18.3549Z" stroke="white" stroke-width="1.52542"/>
<path id="Vector_3" d="M2.37142 3.61497L2.62439 2.89543L2.37142 3.61497ZM2.36613 2.80463C1.96874 2.66492 1.53334 2.87381 1.39362 3.2712C1.25391 3.66858 1.4628 4.10399 1.86018 4.24371L2.36613 2.80463ZM4.66978 4.8322L5.2995 4.40188L5.2995 4.40188L4.66978 4.8322ZM5.95695 14.9794L5.40346 15.5042H5.40346L5.95695 14.9794ZM20.5601 10.3291L21.3071 10.4831L21.3081 10.4784L20.5601 10.3291ZM20.066 12.7265L20.813 12.8804V12.8804L20.066 12.7265ZM20.636 7.17948L20.0314 7.64453L20.636 7.17948ZM19.0532 15.4384L18.5714 14.8471V14.8471L19.0532 15.4384ZM5.80052 10.2078V7.5169H4.2751V10.2078H5.80052ZM2.62439 2.89543L2.36613 2.80463L1.86018 4.24371L2.11844 4.3345L2.62439 2.89543ZM10.9496 16.6456H16.1926V15.1202H10.9496V16.6456ZM5.80052 7.5169C5.80052 6.81819 5.80156 6.23341 5.75009 5.7579C5.69676 5.26525 5.581 4.81382 5.2995 4.40188L4.04006 5.26253C4.12659 5.38916 4.19484 5.5647 4.23353 5.92206C4.27406 6.29657 4.2751 6.78485 4.2751 7.5169H5.80052ZM2.11844 4.3345C2.77898 4.56674 3.21138 4.72007 3.52919 4.87601C3.82705 5.02216 3.95576 5.13917 4.04006 5.26253L5.2995 4.40188C5.01576 3.98666 4.63873 3.72127 4.20114 3.50656C3.7835 3.30164 3.25074 3.11564 2.62439 2.89543L2.11844 4.3345ZM4.2751 10.2078C4.2751 11.6434 4.28851 12.6809 4.42439 13.4742C4.56968 14.3225 4.8602 14.9312 5.40346 15.5042L6.51044 14.4547C6.19708 14.1242 6.02803 13.8012 5.92792 13.2167C5.81837 12.5771 5.80052 11.6805 5.80052 10.2078H4.2751ZM10.9496 15.1202C9.54824 15.1202 8.57806 15.1184 7.84759 15.0148C7.14341 14.915 6.77536 14.7341 6.51044 14.4547L5.40346 15.5042C5.99514 16.1283 6.74474 16.3991 7.63342 16.5251C8.4958 16.6474 9.59366 16.6456 10.9496 16.6456V15.1202ZM5.03781 7.37163H17.0315V5.8462H5.03781V7.37163ZM19.8131 10.1752L19.319 12.5725L20.813 12.8804L21.3071 10.4831L19.8131 10.1752ZM17.0315 7.37163C17.8786 7.37163 18.6225 7.37265 19.2091 7.43823C19.5006 7.4708 19.7175 7.51596 19.869 7.5692C20.0266 7.62459 20.0478 7.66577 20.0314 7.64453L21.2405 6.71442C21.0047 6.4079 20.6738 6.23512 20.3747 6.13004C20.0696 6.02281 19.7251 5.96099 19.3786 5.92224C18.6892 5.84518 17.8503 5.8462 17.0315 5.8462V7.37163ZM21.3081 10.4784C21.4753 9.64074 21.6177 8.93569 21.6526 8.37048C21.6885 7.78867 21.6226 7.21107 21.2405 6.71442L20.0314 7.64453C20.0883 7.71844 20.156 7.85598 20.1301 8.27651C20.1031 8.71365 19.9881 9.29815 19.8121 10.1799L21.3081 10.4784ZM16.1926 16.6456C16.9452 16.6456 17.5787 16.647 18.0898 16.5844C18.6216 16.5193 19.1091 16.3768 19.535 16.0297L18.5714 14.8471C18.4518 14.9446 18.2807 15.0243 17.9044 15.0703C17.5074 15.1189 16.9834 15.1202 16.1926 15.1202V16.6456ZM19.319 12.5725C19.1593 13.347 19.0523 13.86 18.9245 14.239C18.8035 14.5982 18.6909 14.7497 18.5714 14.8471L19.535 16.0297C19.9609 15.6826 20.199 15.2339 20.3701 14.7262C20.5345 14.2383 20.6611 13.6175 20.813 12.8804L19.319 12.5725Z" fill="white"/>
</g>
</svg>