<svg xmlns="http://www.w3.org/2000/svg" width="25" height="24" viewBox="0 0 25 24" fill="none">
<g clip-path="url(#clip0_431_6870)">
<path fill-rule="evenodd" clip-rule="evenodd" d="M0.600098 12C0.600098 6.34312 0.600098 3.51471 2.35746 1.75735C4.11482 0 6.94324 0 12.6001 0C18.257 0 21.0854 0 22.8427 1.75735C24.6001 3.51471 24.6001 6.34312 24.6001 12C24.6001 17.6568 24.6001 20.4852 22.8427 22.2426C21.0854 23.9999 18.257 23.9999 12.6001 23.9999C6.94324 23.9999 4.11482 23.9999 2.35746 22.2426C0.600098 20.4852 0.600098 17.6568 0.600098 12ZM12.6001 5.09998C13.0972 5.09998 13.5001 5.50292 13.5001 5.99998V12.2272L15.5637 10.1636C15.9152 9.8121 16.485 9.8121 16.8365 10.1636C17.188 10.515 17.188 11.0849 16.8365 11.4364L13.2365 15.0363C13.0677 15.2051 12.8388 15.2999 12.6001 15.2999C12.3614 15.2999 12.1325 15.2051 11.9637 15.0363L8.3637 11.4364C8.01223 11.0849 8.01223 10.515 8.3637 10.1636C8.71517 9.8121 9.28502 9.8121 9.63649 10.1636L11.7001 12.2272V5.99998C11.7001 5.50292 12.103 5.09998 12.6001 5.09998ZM7.8001 17.0999C7.30304 17.0999 6.9001 17.5029 6.9001 17.9999C6.9001 18.497 7.30304 18.8999 7.8001 18.8999H17.4001C17.8972 18.8999 18.3001 18.497 18.3001 17.9999C18.3001 17.5029 17.8972 17.0999 17.4001 17.0999H7.8001Z" fill="#6E1366"/>
</g>
<defs>
<clipPath id="clip0_431_6870">
<rect x="0.600098" width="24" height="24" rx="5" fill="white"/>
</clipPath>
</defs>
</svg>