<svg xmlns="http://www.w3.org/2000/svg" width="25" height="24" viewBox="0 0 25 24" fill="none">
<path d="M2.47529 9.6C2.47529 7.31818 2.47673 5.67471 2.64501 4.42304C2.81068 3.19078 3.12685 2.43981 3.68348 1.88319C4.24011 1.32656 4.99108 1.01039 6.22334 0.844717C7.47501 0.676434 9.11848 0.675001 11.4003 0.675001H13.8003C16.0821 0.675001 17.7256 0.676434 18.9773 0.844717C20.2095 1.01039 20.9605 1.32656 21.5171 1.88319C22.0738 2.43981 22.3899 3.19078 22.5556 4.42304C22.7239 5.67471 22.7253 7.31818 22.7253 9.6V14.4C22.7253 16.6818 22.7239 18.3253 22.5556 19.577C22.3899 20.8092 22.0738 21.5602 21.5171 22.1168C20.9605 22.6734 20.2095 22.9896 18.9773 23.1553C17.7256 23.3236 16.0821 23.325 13.8003 23.325H11.4003C9.11848 23.325 7.47501 23.3236 6.22334 23.1553C4.99108 22.9896 4.24011 22.6734 3.68348 22.1168C3.12685 21.5602 2.81068 20.8092 2.64501 19.577C2.47673 18.3253 2.47529 16.6818 2.47529 14.4V9.6Z" stroke="#565656" stroke-width="1.35"/>
<path d="M7.80029 12H17.4003" stroke="#565656" stroke-width="1.35" stroke-linecap="round"/>
<path d="M7.80029 7.2002H17.4003" stroke="#565656" stroke-width="1.35" stroke-linecap="round"/>
<path d="M7.80029 16.7998H13.8003" stroke="#565656" stroke-width="1.35" stroke-linecap="round"/>
<path d="M16.3083 16.077C16.3677 15.071 17.1361 14.3107 18.0249 13.9879C18.1147 13.6152 18.4544 13.3168 18.8428 13.2939C19.2298 13.271 19.5356 13.5292 19.5835 13.8918C19.9655 13.9878 20.3037 14.1748 20.5627 14.4393C20.8508 14.7336 20.8164 15.2359 20.4858 15.561C20.1552 15.8861 19.6535 15.9111 19.3653 15.6167C19.2423 15.491 19.0159 15.3903 18.7178 15.4079C18.1385 15.4422 17.9034 15.8206 17.8938 15.9833C17.8842 16.146 18.076 16.4992 18.6553 16.4649C19.8274 16.3957 20.9853 17.1416 20.9087 18.4384C20.8492 19.4444 20.0808 20.2047 19.192 20.5275C19.1022 20.9002 18.7625 21.1986 18.3741 21.2215C17.9871 21.2444 17.6812 20.9861 17.6334 20.6234C17.1198 20.4943 16.6823 20.2008 16.4144 19.7717C16.1951 19.4204 16.3252 18.9227 16.705 18.6602C17.0848 18.3976 17.5705 18.4696 17.7899 18.8209C17.8856 18.9743 18.1325 19.1292 18.4991 19.1075C19.0784 19.0733 19.3135 18.6948 19.3231 18.5321C19.3327 18.3694 19.1409 18.0162 18.5616 18.0505C17.3896 18.1198 16.2316 17.3738 16.3083 16.077Z" fill="#565656"/>
</svg>