<svg xmlns="http://www.w3.org/2000/svg" width="20" height="21" viewBox="0 0 20 21" fill="none">
<path d="M10 2.20567C12.6506 2.20567 13.0121 2.20567 14.0964 2.20567C15.0602 2.20567 15.5422 2.44663 15.9036 2.56711C16.3855 2.80808 16.747 2.92856 17.1084 3.29C17.4699 3.65145 17.7108 4.0129 17.8313 4.49482C17.9518 4.85627 18.0723 5.3382 18.1928 6.30205C18.1928 7.38639 18.1928 7.62735 18.1928 10.3984C18.1928 13.1695 18.1928 13.4105 18.1928 14.4948C18.1928 15.4587 17.9518 15.9406 17.8313 16.3021C17.5904 16.784 17.4699 17.1454 17.1084 17.5069C16.747 17.8683 16.3855 18.1093 15.9036 18.2298C15.5422 18.3502 15.0602 18.4707 14.0964 18.5912C13.0121 18.5912 12.7711 18.5912 10 18.5912C7.22892 18.5912 6.98795 18.5912 5.90362 18.5912C4.93976 18.5912 4.45783 18.3502 4.09639 18.2298C3.61446 17.9888 3.25301 17.8683 2.89157 17.5069C2.53012 17.1454 2.28916 16.784 2.16868 16.3021C2.04819 15.9406 1.92771 15.4587 1.80723 14.4948C1.80723 13.4105 1.80723 13.1695 1.80723 10.3984C1.80723 7.62735 1.80723 7.38639 1.80723 6.30205C1.80723 5.3382 2.04819 4.85627 2.16868 4.49482C2.40964 4.0129 2.53012 3.65145 2.89157 3.29C3.25301 2.92856 3.61446 2.68759 4.09639 2.56711C4.45783 2.44663 4.93976 2.32615 5.90362 2.20567C6.98795 2.20567 7.3494 2.20567 10 2.20567ZM10 0.398438C7.22892 0.398438 6.98795 0.398438 5.90362 0.398438C4.81928 0.398438 4.09639 0.639402 3.49398 0.880366C2.89157 1.12133 2.28916 1.48278 1.68675 2.08519C1.08434 2.6876 0.843374 3.16952 0.481928 3.89241C0.240965 4.49482 0.120482 5.21772 0 6.30205C0 7.38639 0 7.74784 0 10.3984C0 13.1695 0 13.4105 0 14.4948C0 15.5792 0.240965 16.3021 0.481928 16.9045C0.722892 17.5069 1.08434 18.1093 1.68675 18.7117C2.28916 19.3141 2.77109 19.5551 3.49398 19.9165C4.09639 20.1575 4.81928 20.278 5.90362 20.3984C6.98795 20.3984 7.3494 20.3984 10 20.3984C12.6506 20.3984 13.0121 20.3984 14.0964 20.3984C15.1807 20.3984 15.9036 20.1575 16.506 19.9165C17.1084 19.6755 17.7108 19.3141 18.3133 18.7117C18.9157 18.1093 19.1566 17.6274 19.5181 16.9045C19.759 16.3021 19.8795 15.5792 20 14.4948C20 13.4105 20 13.049 20 10.3984C20 7.74784 20 7.38639 20 6.30205C20 5.21772 19.759 4.49482 19.5181 3.89241C19.2771 3.29 18.9157 2.6876 18.3133 2.08519C17.7108 1.48278 17.2289 1.24181 16.506 0.880366C15.9036 0.639402 15.1807 0.518919 14.0964 0.398438C13.0121 0.398438 12.7711 0.398438 10 0.398438Z" fill="#667085"/>
<path d="M10 5.21772C7.10843 5.21772 4.81928 7.50687 4.81928 10.3984C4.81928 13.29 7.10843 15.5792 10 15.5792C12.8916 15.5792 15.1807 13.29 15.1807 10.3984C15.1807 7.50687 12.8916 5.21772 10 5.21772ZM10 13.7719C8.19277 13.7719 6.62651 12.3261 6.62651 10.3984C6.62651 8.59121 8.07229 7.02494 10 7.02494C11.8072 7.02494 13.3735 8.47073 13.3735 10.3984C13.3735 12.2057 11.8072 13.7719 10 13.7719Z" fill="#667085"/>
<path d="M15.3012 6.30205C15.9666 6.30205 16.506 5.76264 16.506 5.09723C16.506 4.43183 15.9666 3.89241 15.3012 3.89241C14.6358 3.89241 14.0964 4.43183 14.0964 5.09723C14.0964 5.76264 14.6358 6.30205 15.3012 6.30205Z" fill="#667085"/>
</svg>